<?xml version="1.0" encoding="UTF-8" standalone="no"?>
<svg width="41px" height="41px" viewBox="0 0 41 41" version="1.1" xmlns="http://www.w3.org/2000/svg" xmlns:xlink="http://www.w3.org/1999/xlink" xmlns:sketch="http://www.bohemiancoding.com/sketch/ns">
    <title>questionmark</title>
    <description>Created with Sketch (http://www.bohemiancoding.com/sketch)</description>
    <defs></defs>
    <g id="Page-1" stroke="none" stroke-width="1" fill="none" fill-rule="evenodd" sketch:type="MSPage">
        <circle id="Oval-1" stroke="#979797" fill-opacity="0.44815602" fill="#76CAFF" sketch:type="MSShapeGroup" cx="20.5" cy="20.5" r="19.5"></circle>
        <path d="M18.671875,27.0488281 L22.7460938,27.0488281 L22.7460938,31 L18.671875,31 L18.671875,27.0488281 Z M16.4023438,11.6816406 C17.47787,10.9889288 18.7994713,10.6425781 20.3671875,10.6425781 C22.4270936,10.6425781 24.1383395,11.1347607 25.5009766,12.1191406 C26.8636136,13.1035205 27.5449219,14.5618393 27.5449219,16.4941406 C27.5449219,17.6790424 27.2487009,18.6770793 26.65625,19.4882812 C26.3098941,19.9804712 25.6445362,20.6093712 24.6601562,21.375 L23.6894531,22.1269531 C23.1608046,22.5371114 22.8098967,23.0156223 22.6367188,23.5625 C22.5273432,23.9088559 22.468099,24.4466109 22.4589844,25.1757812 L18.7675781,25.1757812 C18.8222659,23.635409 18.9680978,22.571292 19.2050781,21.9833984 C19.4420585,21.3955049 20.0527295,20.7187538 21.0371094,19.953125 L22.0351562,19.1738281 C22.3632829,18.9277331 22.6276032,18.6588556 22.828125,18.3671875 C23.1927102,17.8658829 23.375,17.3144561 23.375,16.7128906 C23.375,16.0201788 23.1722025,15.3890002 22.7666016,14.8193359 C22.3610006,14.2496716 21.6204481,13.9648438 20.5449219,13.9648438 C19.4876249,13.9648438 18.7379579,14.3157517 18.2958984,15.0175781 C17.8538389,15.7194046 17.6328125,16.4485639 17.6328125,17.2050781 L13.6816406,17.2050781 C13.7910162,14.6074089 14.6979081,12.7662815 16.4023438,11.6816406 Z" id="?" fill="#0036FF" sketch:type="MSShapeGroup"></path>
    </g>
</svg>